<svg id="Capa_1" data-name="Capa 1" xmlns="http://www.w3.org/2000/svg" viewBox="0 0 1580 407"><defs><style>.cls-1{fill:#940000;}.cls-2{fill:#c20000;}.cls-3{fill:#f20000;}.cls-4{fill:#ffffff;}.cls-5{fill:#ffffff;}</style></defs><rect class="cls-1" x="19.08" y="18.99" width="125" height="287.54"/><polygon class="cls-2" points="144.09 306.53 441.31 18.99 263.84 18.99 144.09 134.1 144.09 306.53"/><polygon class="cls-3" points="777.24 365.61 447.85 36.22 357.9 123.05 627.86 393.01 777.24 393.01 777.24 365.61"/><path class="cls-4" d="M850.06,133.44v101.2H823.54V133.44H793.29V111h87v22.47Z"/><path class="cls-4" d="M1016.94,111v76.95q0,25.17-13.26,37.59t-40,12.42q-27.11,0-40.37-12.42t-13.27-37.59V111h26.28v72.81q0,15.3,6.75,23t20.19,7.73q13.51,0,20.44-7.77t6.93-23V111Z"/><path class="cls-5" d="M1156.88,143.15a55.36,55.36,0,0,0-16.48-10.51,48.6,48.6,0,0,0-18.07-3.34q-19.77,0-31.51,11.83t-11.74,31.76q0,19.52,10.9,31t29.73,11.44a52.89,52.89,0,0,0,37-14.36l-.17,27.12a69.83,69.83,0,0,1-17.7,7.43,75.87,75.87,0,0,1-19.47,2.45q-29.56,0-48.53-18.37t-19-46.67q0-28.21,19-46.55t49-18.33a88.65,88.65,0,0,1,19.43,2.11,86.49,86.49,0,0,1,18.5,6.51Z"/><path class="cls-5" d="M1179.73,234.64,1226.79,111H1257l47.72,123.67h-30.07l-10-26.28h-47.9l-8.61,26.28Zm78.73-47.06-13.85-40c-.4-1.18-.9-3.21-1.52-6.08s-1.27-6.39-1.94-10.56q-1.11,6-2.12,10.77t-1.52,6.38l-13.34,39.44Z"/><path class="cls-5" d="M1322.8,218.92l14.69-16.64a22.58,22.58,0,0,0,9,10.77A25.23,25.23,0,0,0,1360.3,217q9.29,0,14.7-4.39a14.46,14.46,0,0,0,5.4-11.83q0-8.77-18-17.48-5.82-2.79-9.21-4.57-16.21-8.44-22.46-16.51a30.44,30.44,0,0,1-6.26-19.22q0-15.28,12.13-25.13t31.46-9.84q11.23,0,19.39,3.93a39.54,39.54,0,0,1,14.4,12.29l-15.63,15a19.1,19.1,0,0,0-7.39-8.06,21.79,21.79,0,0,0-11.11-2.67q-7.85,0-12.67,3.93a12.52,12.52,0,0,0-4.81,10.18q0,9.8,19.09,17.91c2.53,1.07,4.48,1.91,5.83,2.53q15.7,7.19,23.27,16.22a31.25,31.25,0,0,1,7.56,20.61q0,17.4-11.87,27.75t-31.89,10.35q-14.19,0-24.32-4.9A32.89,32.89,0,0,1,1322.8,218.92Z"/><path class="cls-5" d="M1425.9,234.64,1473,111h30.24l47.73,123.67h-30.07l-10.06-26.28H1462.9l-8.62,26.28Zm78.73-47.06-13.85-40q-.6-1.77-1.53-6.08T1487.31,131q-1.1,6-2.11,10.77c-.68,3.18-1.18,5.31-1.52,6.38l-13.35,39.44Z"/><path class="cls-5" d="M830.86,270.82a19.71,19.71,0,0,0-5.93-3.79,17.56,17.56,0,0,0-6.51-1.2q-7.11,0-11.34,4.26c-2.82,2.83-4.23,6.65-4.23,11.43s1.31,8.4,3.93,11.15,6.18,4.12,10.7,4.12a19.1,19.1,0,0,0,13.32-5.17l-.06,9.76a25.12,25.12,0,0,1-6.37,2.67,27.2,27.2,0,0,1-7,.89q-10.65,0-17.47-6.62a24,24,0,0,1,0-33.56q6.86-6.58,17.64-6.6a31.62,31.62,0,0,1,7,.77,30.4,30.4,0,0,1,6.66,2.34Z"/><path class="cls-5" d="M898.37,281.58a23.12,23.12,0,0,1-1.78,9,22,22,0,0,1-5.12,7.48,24.58,24.58,0,0,1-7.81,5.08,23.72,23.72,0,0,1-17,.38,24.54,24.54,0,0,1-7.16-4,22.62,22.62,0,0,1-8.67-18,23.07,23.07,0,0,1,1.77-9,22.29,22.29,0,0,1,5.17-7.49,24.41,24.41,0,0,1,16.87-6.84A23.63,23.63,0,0,1,883.7,260a24.4,24.4,0,0,1,7.77,5.05,22.52,22.52,0,0,1,5.14,7.51A23.07,23.07,0,0,1,898.37,281.58Zm-23.72,14.87a13,13,0,0,0,10-4.24,16.26,16.26,0,0,0,0-21.27,13.73,13.73,0,0,0-20,0,16.36,16.36,0,0,0-.06,21.32A13.16,13.16,0,0,0,874.65,296.45Z"/><path class="cls-5" d="M919.48,303.75V259.23h9.88l19.71,25.91a19.84,19.84,0,0,1,1.87,3.09c.68,1.32,1.38,2.89,2.11,4.69-.22-1.31-.38-2.62-.48-3.92s-.16-2.92-.16-4.86V259.23h9.1v44.52h-9.34l-20.25-26.4a19.45,19.45,0,0,1-1.86-3.08q-1-2-2.13-4.76a38.43,38.43,0,0,1,.49,3.88c.1,1.3.15,2.95.15,4.94v25.42Z"/><path class="cls-5" d="M981.64,298.09l5.29-6a8.14,8.14,0,0,0,3.23,3.88,9.07,9.07,0,0,0,5,1.41,8.1,8.1,0,0,0,5.29-1.58,5.18,5.18,0,0,0,2-4.25q0-3.17-6.48-6.3c-1.4-.67-2.5-1.22-3.31-1.64q-5.83-3-8.09-5.95a11,11,0,0,1-2.25-6.92,11.14,11.14,0,0,1,4.36-9q4.36-3.54,11.33-3.55a16,16,0,0,1,7,1.42,14.18,14.18,0,0,1,5.18,4.42l-5.62,5.39a6.93,6.93,0,0,0-2.66-2.91,7.87,7.87,0,0,0-4-1,7,7,0,0,0-4.56,1.42,4.49,4.49,0,0,0-1.74,3.66c0,2.36,2.29,4.5,6.88,6.45.91.38,1.61.69,2.09.91a23.43,23.43,0,0,1,8.38,5.84,11.21,11.21,0,0,1,2.72,7.42,12.57,12.57,0,0,1-4.27,10q-4.27,3.72-11.48,3.73a20,20,0,0,1-8.76-1.77A11.84,11.84,0,0,1,981.64,298.09Z"/><path class="cls-5" d="M1049.09,267.32v36.43h-9.55V267.32h-10.88v-8.09H1060v8.09Z"/><path class="cls-5" d="M1111.5,303.75h-11L1088.81,283v20.8h-9.52V259.23h13.62q8.13,0,12.17,3.15t4,9.47a11.74,11.74,0,0,1-2.76,7.85,10.88,10.88,0,0,1-7.15,3.8Zm-22.69-25.54h1.43c3.85,0,6.39-.43,7.63-1.27s1.86-2.3,1.86-4.39-.67-3.75-2-4.67-3.82-1.38-7.49-1.38h-1.43Z"/><path class="cls-5" d="M1168.39,259.23v27.7q0,9.06-4.77,13.54t-14.38,4.47q-9.77,0-14.54-4.47t-4.77-13.54v-27.7h9.45v26.21q0,5.51,2.44,8.29t7.26,2.78q4.88,0,7.36-2.8t2.5-8.27V259.23Z"/><path class="cls-5" d="M1227.18,270.82a19.83,19.83,0,0,0-5.93-3.79,17.59,17.59,0,0,0-6.51-1.2q-7.11,0-11.34,4.26c-2.82,2.83-4.23,6.65-4.23,11.43s1.31,8.4,3.92,11.15,6.19,4.12,10.71,4.12a19.1,19.1,0,0,0,13.32-5.17l-.06,9.76a25.12,25.12,0,0,1-6.37,2.67,27.2,27.2,0,0,1-7,.89q-10.65,0-17.47-6.62a24,24,0,0,1,0-33.56q6.84-6.58,17.64-6.6a31.53,31.53,0,0,1,7,.77,30.4,30.4,0,0,1,6.66,2.34Z"/><path class="cls-5" d="M1285,270.82A19.83,19.83,0,0,0,1279,267a17.59,17.59,0,0,0-6.51-1.2q-7.11,0-11.34,4.26c-2.82,2.83-4.23,6.65-4.23,11.43s1.31,8.4,3.92,11.15,6.19,4.12,10.71,4.12a19.1,19.1,0,0,0,13.32-5.17l-.06,9.76a25.12,25.12,0,0,1-6.37,2.67,27.2,27.2,0,0,1-7,.89q-10.65,0-17.47-6.62a24,24,0,0,1,0-33.56q6.84-6.58,17.64-6.6a31.53,31.53,0,0,1,7,.77,30.4,30.4,0,0,1,6.66,2.34Z"/><path class="cls-5" d="M1307.07,303.75V259.23h9.52v44.52Z"/><path class="cls-5" d="M1385.41,281.58a23.31,23.31,0,0,1-1.78,9,22.21,22.21,0,0,1-5.13,7.48,24.47,24.47,0,0,1-7.81,5.08,23.69,23.69,0,0,1-17,.38,24.46,24.46,0,0,1-7.17-4,22.57,22.57,0,0,1-8.66-18,23.24,23.24,0,0,1,1.76-9,22.43,22.43,0,0,1,5.17-7.49,24.41,24.41,0,0,1,16.88-6.84,23.67,23.67,0,0,1,9,1.79,24.47,24.47,0,0,1,7.76,5.05,22.23,22.23,0,0,1,5.14,7.51A23.08,23.08,0,0,1,1385.41,281.58Zm-23.72,14.87a13,13,0,0,0,10-4.24,16.25,16.25,0,0,0,0-21.27,13,13,0,0,0-9.94-4.32,13.09,13.09,0,0,0-10,4.3,16.36,16.36,0,0,0-.06,21.32A13.18,13.18,0,0,0,1361.69,296.45Z"/><path class="cls-5" d="M1406.51,303.75V259.23h9.89l19.7,25.91a19.84,19.84,0,0,1,1.87,3.09c.68,1.32,1.39,2.89,2.12,4.69-.23-1.31-.39-2.62-.49-3.92s-.15-2.92-.15-4.86V259.23h9.09v44.52h-9.33L1419,277.35a19.51,19.51,0,0,1-1.85-3.08q-1-2-2.13-4.76c.22,1.28.38,2.57.49,3.88s.15,2.95.15,4.94v25.42Z"/><path class="cls-5" d="M1471.53,303.75V259.23h26.22v8h-16.7v9.15h16.7v8.09h-16.7v11.16h16.7v8.09Z"/><path class="cls-5" d="M1517.3,298.09l5.29-6a8.14,8.14,0,0,0,3.23,3.88,9.09,9.09,0,0,0,5,1.41,8.15,8.15,0,0,0,5.3-1.58,5.2,5.2,0,0,0,1.94-4.25q0-3.17-6.48-6.3c-1.39-.67-2.5-1.22-3.31-1.64q-5.84-3-8.09-5.95a11,11,0,0,1-2.25-6.92,11.14,11.14,0,0,1,4.36-9q4.37-3.54,11.33-3.55a16,16,0,0,1,7,1.42,14.2,14.2,0,0,1,5.19,4.42l-5.63,5.39a6.93,6.93,0,0,0-2.66-2.91,7.87,7.87,0,0,0-4-1,7,7,0,0,0-4.56,1.42,4.48,4.48,0,0,0-1.73,3.66c0,2.36,2.29,4.5,6.87,6.45.91.38,1.61.69,2.1.91a23.47,23.47,0,0,1,8.37,5.84,11.22,11.22,0,0,1,2.73,7.42,12.58,12.58,0,0,1-4.28,10q-4.27,3.72-11.48,3.73a19.88,19.88,0,0,1-8.75-1.77A11.82,11.82,0,0,1,1517.3,298.09Z"/></svg>
